<svg width="8" height="797" viewBox="0 0 8 797" fill="none" xmlns="http://www.w3.org/2000/svg">
<path d="M4 0C1.79086 9.65645e-08 -9.65645e-08 1.79086 0 4C9.65645e-08 6.20914 1.79086 8 4 8C6.20914 8 8 6.20914 8 4C8 1.79086 6.20914 -9.65645e-08 4 0ZM4.00003 727.67C1.79089 727.67 3.17109e-05 729.461 3.18075e-05 731.67C3.19041e-05 733.88 1.79089 735.67 4.00003 735.67C6.20917 735.67 8.00003 733.88 8.00003 731.67C8.00003 729.461 6.20917 727.67 4.00003 727.67ZM3.25 4L3.25003 731.67L4.75003 731.67L4.75 4L3.25 4Z" fill="#6A6052"/>
<ellipse cx="4" cy="215.065" rx="4" ry="4.02028" fill="#6A6052"/>
<ellipse cx="4" cy="297.48" rx="4" ry="4.02028" fill="#6A6052"/>
<ellipse cx="4" cy="516.586" rx="4" ry="4.02028" fill="#6A6052"/>
</svg>
